<mxfile host="app.diagrams.net" modified="2024-03-08T07:38:07.159Z" agent="Mozilla/5.0 (Windows NT 10.0; Win64; x64) AppleWebKit/537.36 (KHTML, like Gecko) Chrome/122.0.0.0 Safari/537.36 Edg/122.0.0.0" version="24.0.2" etag="pYnxaXtzUMPy3q-k2eqr" type="github">
  <diagram name="Trang-1" id="imyDnJczysFpG-U4gy_G">
    <mxGraphModel>
      <root>
        <mxCell id="0" />
        <mxCell id="1" parent="0" />
      </root>
    </mxGraphModel>
  </diagram>
</mxfile>
